<?xml version="1.0" encoding="UTF-8"?>
<svg xmlns="http://www.w3.org/2000/svg" viewBox="0 0 1200 120">
  <g fill="none" stroke="#000" stroke-width="8" stroke-linecap="round" stroke-linejoin="round">
    <line x1="20" y1="60" x2="170" y2="60"/>
    <path d="M170 60
             C260 60 300 20 390 20
             C450 20 490 35 520 60
             C490 85 450 100 390 100
             C300 100 260 60 170 60 Z"
          fill="none"/>
    <path d="M680 60
             C770 60 810 20 900 20
             C960 20 1000 35 1030 60
             C1000 85 960 100 900 100
             C810 100 770 60 680 60 Z"
          fill="none"/>
    <path d="M560 60
             c0-28 18-40 40-40
             c22 0 40 18 40 40
             c0 18-10 30-20 40"
          />
    <path d="M640 60
             c0-28 -18-40 -40-40
             c-22 0 -40 18 -40 40
             c0 18 10 30 20 40"
          />
    <path d="M585 60
             a15 15 0 1 1 30 0"
          />
    <line x1="1030" y1="60" x2="1180" y2="60"/>
  </g>
</svg>
